<svg width="62" height="62" viewBox="0 0 62 62" fill="#fff" xmlns="http://www.w3.org/2000/svg">
<circle cx="30.9999" cy="31.2529" r="29" transform="rotate(178.654 30.9999 31.2529)" stroke="#F53838" stroke-width="2"/>
<path d="M22.2817 32.7082L37.1026 32.36L32.6944 37.9151C32.4883 38.1753 32.3939 38.5067 32.4322 38.8364C32.4704 39.1661 32.638 39.4672 32.8982 39.6733C33.1584 39.8794 33.4898 39.9737 33.8195 39.9355C34.1493 39.8973 34.4503 39.7296 34.6564 39.4694L40.7285 31.8247C40.7692 31.7641 40.8053 31.7006 40.8366 31.6346C40.8351 31.5721 40.8343 31.5347 40.9203 31.4701C40.9735 31.3255 40.9996 31.1723 40.9972 31.0182C40.9924 30.8641 40.9591 30.7123 40.8991 30.5704C40.8977 30.5079 40.8968 30.4704 40.8078 30.41C40.7735 30.3456 40.7344 30.2838 40.691 30.2252L34.2665 22.874C34.1457 22.7357 33.9959 22.6257 33.8278 22.5519C33.6597 22.478 33.4773 22.4421 33.2937 22.4468C33.0017 22.453 32.7212 22.5614 32.5007 22.753C32.3766 22.8608 32.2751 22.9921 32.2018 23.1393C32.1286 23.2865 32.0851 23.4467 32.0738 23.6108C32.0626 23.7748 32.0838 23.9394 32.1363 24.0952C32.1888 24.2511 32.2715 24.395 32.3796 24.5188L37.0439 29.8607L22.223 30.2089C21.8916 30.2167 21.5768 30.3558 21.3479 30.5957C21.1191 30.8356 20.9949 31.1565 21.0027 31.4879C21.0105 31.8194 21.1496 32.1341 21.3895 32.363C21.6293 32.5918 21.9503 32.716 22.2817 32.7082Z" fill="#F53838"/>
</svg>
